<?xml version="1.0" encoding="utf-8"?>
<!-- Generator: Adobe Illustrator 27.5.0, SVG Export Plug-In . SVG Version: 6.00 Build 0)  -->
<svg version="1.1" xmlns="http://www.w3.org/2000/svg" xmlns:xlink="http://www.w3.org/1999/xlink" x="0px" y="0px"
	 viewBox="0 0 500 500" style="enable-background:new 0 0 500 500;" xml:space="preserve">
<g id="BACKGROUND">
	<rect style="fill-rule:evenodd;clip-rule:evenodd;fill:#FFFFFF;" width="500" height="500"/>
</g>
<g id="OBJECTS">
	<g>
		
			<radialGradient id="SVGID_1_" cx="250" cy="-231.2664" r="112.0474" gradientTransform="matrix(1 0 0 0.0565 0 398.3369)" gradientUnits="userSpaceOnUse">
			<stop  offset="0" style="stop-color:#A7A9AC"/>
			<stop  offset="0.2152" style="stop-color:#ABADB0;stop-opacity:0.7848"/>
			<stop  offset="0.4279" style="stop-color:#B7B8BB;stop-opacity:0.5721"/>
			<stop  offset="0.6396" style="stop-color:#CBCCCE;stop-opacity:0.3604"/>
			<stop  offset="0.8495" style="stop-color:#E6E7E8;stop-opacity:0.1505"/>
			<stop  offset="1" style="stop-color:#FFFFFF;stop-opacity:0"/>
		</radialGradient>
		<path style="fill:url(#SVGID_1_);" d="M362,385.27c0,3.498-50.144,6.333-112,6.333s-112-2.836-112-6.333s50.144-6.333,112-6.333
			S362,381.772,362,385.27z"/>
		
			<linearGradient id="SVGID_00000120530829012701406130000011045207208239586962_" gradientUnits="userSpaceOnUse" x1="368.9789" y1="56.1681" x2="55.5925" y2="402.2776">
			<stop  offset="0" style="stop-color:#FDCF85"/>
			<stop  offset="0.1505" style="stop-color:#FBB040"/>
			<stop  offset="0.3387" style="stop-color:#EC478C"/>
			<stop  offset="0.5699" style="stop-color:#92278F"/>
			<stop  offset="0.8656" style="stop-color:#1C75BC"/>
		</linearGradient>
		<path style="fill:url(#SVGID_00000120530829012701406130000011045207208239586962_);" d="M340.213,113.249
			C273.849,90.314,250,156.126,250,156.126s-23.849-65.811-90.213-42.877c-80.024,27.655-54.439,141.096,90.213,244.3
			C394.652,254.344,420.237,140.904,340.213,113.249z"/>
	</g>
</g>
<g id="DESIGNED_BY_FREEPIK">
	<g id="XMLID_1108_">
		<g id="XMLID_2954_">
			<path id="XMLID_2979_" style="fill:#7F3F98;" d="M173.958,476.136v-0.175c-0.238,0.272-0.472,0.494-0.703,0.663
				c-0.231,0.171-0.482,0.301-0.752,0.389c-0.27,0.09-0.564,0.133-0.884,0.133c-0.423,0-0.816-0.089-1.176-0.268
				c-0.36-0.179-0.672-0.436-0.935-0.768c-0.264-0.332-0.464-0.723-0.6-1.172c-0.136-0.45-0.204-0.935-0.204-1.457
				c0-1.106,0.27-1.968,0.81-2.585c0.539-0.617,1.25-0.926,2.131-0.926c0.509,0,0.939,0.088,1.288,0.262
				c0.35,0.175,0.691,0.445,1.024,0.807v-2.61c0-0.363,0.072-0.637,0.217-0.822c0.144-0.186,0.35-0.278,0.618-0.278
				c0.268,0,0.474,0.085,0.619,0.255c0.145,0.171,0.217,0.422,0.217,0.754v7.798c0,0.337-0.077,0.589-0.233,0.758
				c-0.155,0.167-0.356,0.252-0.602,0.252c-0.242,0-0.441-0.087-0.599-0.261C174.037,476.709,173.958,476.46,173.958,476.136z
				 M170.48,473.539c0,0.48,0.075,0.887,0.223,1.224c0.149,0.337,0.353,0.591,0.612,0.76c0.26,0.171,0.542,0.258,0.849,0.258
				c0.311,0,0.595-0.082,0.852-0.244c0.257-0.161,0.462-0.41,0.615-0.744c0.154-0.335,0.23-0.754,0.23-1.254
				c0-0.471-0.076-0.876-0.23-1.215c-0.153-0.338-0.36-0.598-0.622-0.777c-0.262-0.178-0.548-0.268-0.858-0.268
				c-0.324,0-0.613,0.092-0.868,0.275c-0.255,0.183-0.452,0.446-0.592,0.79C170.55,472.687,170.48,473.086,170.48,473.539z"/>
			<path id="XMLID_2976_" style="fill:#7F3F98;" d="M181.755,473.987h-3.458c0.005,0.401,0.085,0.755,0.243,1.061
				c0.157,0.307,0.367,0.538,0.628,0.693c0.261,0.156,0.55,0.232,0.865,0.232c0.211,0,0.404-0.024,0.579-0.073
				c0.175-0.05,0.344-0.127,0.509-0.233c0.165-0.105,0.315-0.219,0.453-0.34c0.138-0.121,0.317-0.286,0.537-0.493
				c0.091-0.077,0.221-0.117,0.389-0.117c0.181,0,0.328,0.051,0.44,0.15c0.112,0.1,0.169,0.239,0.169,0.421
				c0,0.16-0.063,0.346-0.188,0.56c-0.126,0.214-0.315,0.419-0.567,0.616c-0.253,0.196-0.57,0.358-0.953,0.489
				c-0.382,0.13-0.821,0.194-1.318,0.194c-1.135,0-2.019-0.324-2.649-0.972c-0.63-0.647-0.945-1.526-0.945-2.636
				c0-0.523,0.077-1.007,0.233-1.454c0.156-0.448,0.383-0.831,0.68-1.15c0.298-0.319,0.665-0.564,1.102-0.735
				c0.435-0.171,0.919-0.255,1.451-0.255c0.69,0,1.283,0.144,1.777,0.437c0.495,0.291,0.866,0.668,1.112,1.129
				c0.245,0.462,0.369,0.934,0.369,1.412c0,0.446-0.127,0.734-0.382,0.866C182.577,473.92,182.218,473.987,181.755,473.987z
				 M178.297,472.982h3.206c-0.043-0.605-0.207-1.058-0.489-1.357c-0.283-0.301-0.655-0.45-1.117-0.45
				c-0.441,0-0.803,0.152-1.085,0.456C178.529,471.935,178.358,472.386,178.297,472.982z"/>
			<path id="XMLID_2974_" style="fill:#7F3F98;" d="M189.812,474.834c0,0.488-0.118,0.906-0.356,1.254
				c-0.237,0.348-0.588,0.611-1.052,0.791c-0.464,0.179-1.029,0.268-1.693,0.268c-0.635,0-1.179-0.097-1.632-0.292
				c-0.453-0.194-0.788-0.438-1.004-0.728c-0.216-0.292-0.324-0.584-0.324-0.878c0-0.194,0.068-0.36,0.207-0.498
				c0.138-0.138,0.313-0.207,0.525-0.207c0.185,0,0.327,0.045,0.427,0.136c0.1,0.09,0.195,0.218,0.285,0.382
				c0.181,0.316,0.399,0.55,0.651,0.706c0.252,0.155,0.597,0.233,1.033,0.233c0.354,0,0.644-0.079,0.871-0.237
				c0.226-0.159,0.339-0.338,0.339-0.542c0-0.311-0.117-0.537-0.353-0.679c-0.235-0.143-0.623-0.279-1.163-0.409
				c-0.609-0.151-1.104-0.31-1.486-0.476c-0.382-0.165-0.688-0.385-0.916-0.657c-0.229-0.272-0.344-0.607-0.344-1.004
				c0-0.353,0.106-0.688,0.317-1.004c0.212-0.314,0.524-0.566,0.937-0.754c0.411-0.189,0.909-0.282,1.492-0.282
				c0.458,0,0.869,0.047,1.234,0.143c0.365,0.094,0.67,0.222,0.913,0.382c0.244,0.159,0.43,0.336,0.557,0.53
				c0.127,0.194,0.191,0.384,0.191,0.571c0,0.203-0.068,0.369-0.204,0.499c-0.136,0.128-0.329,0.194-0.58,0.194
				c-0.182,0-0.336-0.052-0.463-0.156c-0.127-0.103-0.273-0.258-0.437-0.465c-0.134-0.173-0.291-0.311-0.473-0.415
				c-0.182-0.104-0.428-0.155-0.739-0.155c-0.32,0-0.585,0.067-0.797,0.204c-0.211,0.135-0.317,0.304-0.317,0.507
				c0,0.187,0.077,0.339,0.233,0.457c0.156,0.12,0.365,0.218,0.629,0.295c0.263,0.077,0.625,0.172,1.088,0.284
				c0.548,0.135,0.996,0.294,1.344,0.48c0.347,0.185,0.611,0.405,0.791,0.658C189.723,474.222,189.812,474.51,189.812,474.834z"/>
			<path id="XMLID_2971_" style="fill:#7F3F98;" d="M191.619,469.135c-0.246,0-0.457-0.076-0.632-0.227
				c-0.175-0.151-0.262-0.364-0.262-0.641c0-0.251,0.09-0.456,0.269-0.619c0.179-0.162,0.388-0.243,0.625-0.243
				c0.229,0,0.432,0.073,0.608,0.22c0.177,0.147,0.266,0.36,0.266,0.641c0,0.272-0.087,0.485-0.26,0.638
				C192.061,469.058,191.856,469.135,191.619,469.135z M192.494,470.961v5.11c0,0.354-0.084,0.622-0.253,0.804
				c-0.169,0.181-0.382,0.271-0.641,0.271s-0.47-0.092-0.632-0.278c-0.162-0.186-0.243-0.451-0.243-0.797v-5.059
				c0-0.349,0.081-0.613,0.243-0.79c0.162-0.177,0.372-0.266,0.632-0.266s0.472,0.088,0.641,0.266
				C192.409,470.4,192.494,470.646,192.494,470.961z"/>
			<path id="XMLID_2968_" style="fill:#7F3F98;" d="M200.24,471.253v5.136c0,0.587-0.064,1.093-0.189,1.516
				c-0.124,0.422-0.325,0.773-0.602,1.049c-0.276,0.276-0.638,0.482-1.085,0.615c-0.447,0.135-1.003,0.201-1.668,0.201
				c-0.609,0-1.153-0.085-1.632-0.256c-0.479-0.171-0.848-0.391-1.107-0.661c-0.259-0.27-0.389-0.547-0.389-0.832
				c0-0.216,0.073-0.392,0.22-0.527c0.146-0.136,0.324-0.204,0.531-0.204c0.259,0,0.486,0.114,0.68,0.343
				c0.095,0.116,0.193,0.235,0.295,0.354c0.101,0.119,0.214,0.22,0.337,0.305c0.123,0.083,0.271,0.146,0.444,0.187
				c0.173,0.04,0.372,0.061,0.596,0.061c0.458,0,0.813-0.063,1.066-0.191c0.253-0.127,0.43-0.305,0.531-0.534
				c0.102-0.228,0.161-0.473,0.178-0.735c0.017-0.262,0.03-0.681,0.038-1.261c-0.272,0.381-0.586,0.671-0.943,0.869
				c-0.356,0.199-0.781,0.298-1.272,0.298c-0.592,0-1.109-0.151-1.552-0.454c-0.442-0.302-0.783-0.725-1.02-1.27
				c-0.238-0.544-0.356-1.172-0.356-1.884c0-0.531,0.072-1.011,0.217-1.438c0.145-0.428,0.351-0.788,0.619-1.082
				c0.268-0.294,0.576-0.515,0.926-0.664c0.35-0.149,0.734-0.223,1.153-0.223c0.5,0,0.935,0.097,1.302,0.288
				c0.367,0.193,0.708,0.494,1.023,0.904v-0.24c0-0.306,0.075-0.544,0.226-0.713c0.151-0.167,0.346-0.252,0.584-0.252
				c0.341,0,0.567,0.112,0.68,0.333C200.183,470.513,200.24,470.834,200.24,471.253z M195.116,473.494
				c0,0.716,0.156,1.259,0.469,1.626c0.313,0.367,0.718,0.551,1.215,0.551c0.293,0,0.571-0.08,0.831-0.236
				c0.262-0.158,0.474-0.396,0.639-0.712c0.164-0.318,0.246-0.703,0.246-1.156c0-0.72-0.159-1.283-0.476-1.684
				c-0.318-0.402-0.735-0.603-1.253-0.603c-0.505,0-0.91,0.192-1.214,0.577C195.268,472.239,195.116,472.786,195.116,473.494z"/>
			<path id="XMLID_2966_" style="fill:#7F3F98;" d="M203.05,470.935v0.214c0.31-0.41,0.65-0.711,1.02-0.904
				c0.37-0.192,0.793-0.288,1.273-0.288c0.466,0,0.883,0.102,1.25,0.305c0.367,0.203,0.642,0.49,0.822,0.861
				c0.117,0.216,0.192,0.45,0.227,0.7c0.035,0.251,0.053,0.57,0.053,0.959v3.29c0,0.354-0.081,0.622-0.244,0.804
				c-0.162,0.181-0.372,0.271-0.631,0.271c-0.264,0-0.477-0.092-0.641-0.278c-0.165-0.186-0.246-0.451-0.246-0.797v-2.947
				c0-0.582-0.081-1.029-0.243-1.337c-0.162-0.308-0.484-0.463-0.968-0.463c-0.315,0-0.602,0.094-0.861,0.281
				c-0.259,0.189-0.449,0.447-0.57,0.775c-0.086,0.264-0.129,0.755-0.129,1.477v2.215c0,0.358-0.084,0.628-0.249,0.807
				c-0.166,0.179-0.381,0.268-0.644,0.268c-0.255,0-0.464-0.092-0.629-0.278c-0.164-0.186-0.246-0.451-0.246-0.797v-5.11
				c0-0.337,0.073-0.589,0.22-0.755c0.147-0.166,0.348-0.249,0.602-0.249c0.156,0,0.296,0.036,0.422,0.11
				c0.125,0.074,0.226,0.184,0.301,0.33C203.012,470.544,203.05,470.724,203.05,470.935z"/>
			<path id="XMLID_2963_" style="fill:#7F3F98;" d="M213.807,473.987h-3.458c0.005,0.401,0.085,0.755,0.243,1.061
				c0.157,0.307,0.367,0.538,0.628,0.693c0.26,0.156,0.549,0.232,0.864,0.232c0.212,0,0.405-0.024,0.58-0.073
				c0.174-0.05,0.344-0.127,0.509-0.233c0.163-0.105,0.314-0.219,0.453-0.34c0.138-0.121,0.317-0.286,0.537-0.493
				c0.09-0.077,0.22-0.117,0.389-0.117c0.182,0,0.329,0.051,0.44,0.15c0.112,0.1,0.168,0.239,0.168,0.421
				c0,0.16-0.062,0.346-0.188,0.56c-0.126,0.214-0.314,0.419-0.567,0.616c-0.253,0.196-0.569,0.358-0.952,0.489
				c-0.382,0.13-0.822,0.194-1.318,0.194c-1.136,0-2.019-0.324-2.65-0.972c-0.63-0.647-0.945-1.526-0.945-2.636
				c0-0.523,0.078-1.007,0.233-1.454c0.155-0.448,0.382-0.831,0.68-1.15c0.298-0.319,0.665-0.564,1.101-0.735
				c0.436-0.171,0.92-0.255,1.451-0.255c0.69,0,1.283,0.144,1.777,0.437c0.495,0.291,0.865,0.668,1.111,1.129
				c0.246,0.462,0.369,0.934,0.369,1.412c0,0.446-0.128,0.734-0.383,0.866C214.628,473.92,214.27,473.987,213.807,473.987z
				 M210.348,472.982h3.206c-0.043-0.605-0.206-1.058-0.489-1.357c-0.283-0.301-0.655-0.45-1.117-0.45
				c-0.441,0-0.803,0.152-1.086,0.456C210.58,471.935,210.409,472.386,210.348,472.982z"/>
			<path id="XMLID_2960_" style="fill:#7F3F98;" d="M221.015,476.136v-0.175c-0.237,0.272-0.472,0.494-0.703,0.663
				c-0.231,0.171-0.481,0.301-0.751,0.389c-0.269,0.09-0.564,0.133-0.884,0.133c-0.424,0-0.815-0.089-1.176-0.268
				c-0.36-0.179-0.673-0.436-0.936-0.768c-0.263-0.332-0.463-0.723-0.599-1.172c-0.136-0.45-0.204-0.935-0.204-1.457
				c0-1.106,0.27-1.968,0.809-2.585c0.54-0.617,1.251-0.926,2.131-0.926c0.509,0,0.939,0.088,1.289,0.262
				c0.35,0.175,0.691,0.445,1.023,0.807v-2.61c0-0.363,0.072-0.637,0.217-0.822c0.144-0.186,0.351-0.278,0.619-0.278
				c0.267,0,0.473,0.085,0.618,0.255c0.145,0.171,0.217,0.422,0.217,0.754v7.798c0,0.337-0.077,0.589-0.233,0.758
				c-0.155,0.167-0.356,0.252-0.602,0.252c-0.242,0-0.441-0.087-0.6-0.261C221.094,476.709,221.015,476.46,221.015,476.136z
				 M217.537,473.539c0,0.48,0.074,0.887,0.223,1.224c0.149,0.337,0.353,0.591,0.613,0.76c0.259,0.171,0.542,0.258,0.848,0.258
				c0.311,0,0.595-0.082,0.852-0.244c0.257-0.161,0.462-0.41,0.616-0.744c0.153-0.335,0.23-0.754,0.23-1.254
				c0-0.471-0.077-0.876-0.23-1.215c-0.153-0.338-0.36-0.598-0.622-0.777c-0.262-0.178-0.547-0.268-0.858-0.268
				c-0.323,0-0.613,0.092-0.868,0.275c-0.254,0.183-0.452,0.446-0.592,0.79C217.607,472.687,217.537,473.086,217.537,473.539z"/>
			<path id="XMLID_2957_" style="fill:#7F3F98;" d="M228.242,468.338v2.701c0.332-0.345,0.671-0.61,1.017-0.793
				c0.345-0.183,0.773-0.275,1.283-0.275c0.587,0,1.102,0.139,1.545,0.417c0.442,0.28,0.785,0.683,1.03,1.212
				c0.244,0.528,0.367,1.156,0.367,1.882c0,0.535-0.069,1.025-0.204,1.473c-0.136,0.447-0.334,0.834-0.592,1.162
				c-0.26,0.328-0.574,0.583-0.942,0.762c-0.37,0.179-0.777,0.268-1.221,0.268c-0.272,0-0.528-0.032-0.768-0.097
				c-0.24-0.064-0.444-0.149-0.612-0.256c-0.168-0.105-0.312-0.214-0.431-0.327c-0.119-0.112-0.276-0.281-0.47-0.505v0.175
				c0,0.332-0.08,0.584-0.24,0.755c-0.159,0.171-0.362,0.255-0.608,0.255c-0.251,0-0.45-0.085-0.599-0.255
				c-0.149-0.171-0.223-0.423-0.223-0.755v-7.721c0-0.359,0.072-0.63,0.217-0.813c0.145-0.183,0.347-0.275,0.606-0.275
				c0.272,0,0.481,0.087,0.628,0.262C228.168,467.765,228.242,468.014,228.242,468.338z M228.326,473.591
				c0,0.703,0.161,1.244,0.483,1.622c0.322,0.378,0.744,0.568,1.266,0.568c0.444,0,0.828-0.194,1.15-0.58
				c0.322-0.387,0.482-0.94,0.482-1.662c0-0.466-0.066-0.868-0.2-1.205c-0.134-0.337-0.324-0.597-0.57-0.78
				c-0.247-0.183-0.534-0.275-0.862-0.275c-0.337,0-0.637,0.092-0.9,0.275c-0.263,0.183-0.471,0.449-0.622,0.796
				C228.402,472.697,228.326,473.111,228.326,473.591z"/>
			<path id="XMLID_2955_" style="fill:#7F3F98;" d="M235.775,477.367l0.162-0.396l-2.176-5.48c-0.134-0.314-0.202-0.544-0.202-0.686
				c0-0.151,0.04-0.291,0.117-0.42c0.078-0.13,0.185-0.234,0.32-0.311c0.136-0.079,0.278-0.117,0.424-0.117
				c0.255,0,0.447,0.081,0.577,0.243c0.13,0.162,0.244,0.393,0.343,0.696l1.496,4.353l1.418-4.049
				c0.112-0.327,0.213-0.585,0.304-0.77c0.09-0.186,0.186-0.311,0.288-0.375c0.101-0.065,0.245-0.098,0.431-0.098
				c0.134,0,0.262,0.035,0.385,0.107c0.123,0.072,0.218,0.168,0.285,0.289c0.066,0.12,0.1,0.247,0.1,0.381
				c-0.018,0.082-0.045,0.199-0.084,0.351c-0.039,0.15-0.086,0.305-0.142,0.46l-2.305,6.037c-0.199,0.531-0.393,0.947-0.584,1.249
				c-0.19,0.303-0.441,0.535-0.755,0.697c-0.313,0.162-0.735,0.243-1.266,0.243c-0.518,0-0.907-0.056-1.165-0.168
				c-0.26-0.113-0.389-0.318-0.389-0.616c0-0.202,0.061-0.359,0.185-0.469c0.122-0.11,0.305-0.166,0.547-0.166
				c0.095,0,0.188,0.013,0.279,0.04c0.112,0.025,0.209,0.039,0.291,0.039c0.203,0,0.363-0.03,0.48-0.092
				c0.117-0.06,0.221-0.164,0.314-0.314C235.547,477.876,235.654,477.656,235.775,477.367z"/>
		</g>
		<g id="XMLID_2932_">
			<path id="XMLID_2953_" style="fill:#7F3F98;" d="M261.391,470.11h0.421v-0.531c0-0.555,0.068-0.993,0.209-1.321
				c0.139-0.326,0.379-0.563,0.714-0.712c0.334-0.148,0.793-0.223,1.375-0.223c1.036,0,1.55,0.25,1.55,0.76
				c0,0.162-0.054,0.303-0.164,0.419c-0.105,0.115-0.234,0.175-0.38,0.175c-0.068,0-0.19-0.013-0.36-0.041
				c-0.162-0.023-0.309-0.038-0.425-0.038c-0.319,0-0.523,0.096-0.617,0.283c-0.086,0.188-0.133,0.456-0.133,0.807v0.421h0.431
				c0.676,0,1.01,0.202,1.01,0.611c0,0.286-0.086,0.471-0.268,0.549c-0.178,0.078-0.426,0.117-0.743,0.117h-0.431v4.686
				c0,0.348-0.082,0.614-0.252,0.797c-0.164,0.186-0.378,0.277-0.643,0.277c-0.25,0-0.457-0.091-0.626-0.277
				c-0.167-0.183-0.249-0.448-0.249-0.797v-4.686h-0.487c-0.265,0-0.466-0.057-0.609-0.178c-0.143-0.117-0.215-0.273-0.215-0.462
				C260.501,470.32,260.798,470.11,261.391,470.11"/>
			<path id="XMLID_2952_" style="fill:#7F3F98;" d="M267.18,474.593v1.478c0,0.357-0.091,0.627-0.255,0.805
				c-0.168,0.181-0.381,0.269-0.639,0.269c-0.261,0-0.469-0.089-0.632-0.273c-0.161-0.18-0.246-0.447-0.246-0.8v-4.925
				c0-0.795,0.286-1.193,0.86-1.193c0.296,0,0.507,0.092,0.637,0.278c0.129,0.186,0.201,0.46,0.217,0.824
				c0.21-0.364,0.426-0.637,0.646-0.824c0.227-0.186,0.52-0.278,0.893-0.278c0.375,0,0.731,0.092,1.081,0.278
				c0.352,0.186,0.526,0.434,0.526,0.74c0,0.215-0.075,0.396-0.222,0.533c-0.15,0.142-0.31,0.212-0.482,0.212
				c-0.068,0-0.225-0.042-0.472-0.122c-0.249-0.077-0.469-0.118-0.656-0.118c-0.259,0-0.472,0.07-0.635,0.203
				c-0.165,0.14-0.294,0.339-0.385,0.604c-0.088,0.269-0.149,0.59-0.186,0.958C267.195,473.612,267.18,474.062,267.18,474.593"/>
			<path id="XMLID_2949_" style="fill:#7F3F98;" d="M275.309,473.985h-3.46c0.006,0.401,0.085,0.757,0.242,1.063
				c0.16,0.304,0.368,0.536,0.63,0.693c0.263,0.155,0.548,0.232,0.865,0.232c0.212,0,0.404-0.023,0.579-0.076
				c0.173-0.048,0.344-0.127,0.508-0.233c0.165-0.104,0.314-0.217,0.453-0.341c0.137-0.119,0.318-0.284,0.539-0.49
				c0.092-0.077,0.221-0.118,0.388-0.118c0.183,0,0.328,0.051,0.443,0.151c0.113,0.1,0.166,0.239,0.166,0.421
				c0,0.16-0.061,0.346-0.183,0.559c-0.128,0.216-0.316,0.42-0.57,0.618c-0.255,0.194-0.572,0.359-0.953,0.486
				c-0.381,0.13-0.822,0.195-1.317,0.195c-1.14,0-2.021-0.322-2.651-0.97c-0.63-0.649-0.949-1.529-0.949-2.638
				c0-0.522,0.08-1.008,0.237-1.456c0.153-0.449,0.38-0.829,0.681-1.151c0.297-0.321,0.661-0.565,1.1-0.735
				c0.435-0.17,0.919-0.255,1.451-0.255c0.689,0,1.283,0.146,1.777,0.44c0.494,0.288,0.868,0.666,1.111,1.128
				c0.246,0.464,0.369,0.933,0.369,1.414c0,0.442-0.129,0.73-0.383,0.863C276.129,473.918,275.771,473.985,275.309,473.985
				 M271.849,472.979h3.206c-0.043-0.604-0.203-1.057-0.487-1.355c-0.285-0.302-0.654-0.45-1.119-0.45
				c-0.44,0-0.803,0.15-1.086,0.456C272.081,471.935,271.908,472.383,271.849,472.979"/>
			<path id="XMLID_2946_" style="fill:#7F3F98;" d="M282.665,473.985h-3.46c0.004,0.401,0.085,0.757,0.242,1.063
				c0.157,0.304,0.367,0.536,0.628,0.693c0.261,0.155,0.55,0.232,0.867,0.232c0.21,0,0.404-0.023,0.576-0.076
				c0.176-0.048,0.345-0.127,0.511-0.233c0.165-0.104,0.314-0.217,0.453-0.341c0.136-0.119,0.316-0.284,0.537-0.49
				c0.092-0.077,0.223-0.118,0.388-0.118c0.183,0,0.33,0.051,0.444,0.151c0.113,0.1,0.164,0.239,0.164,0.421
				c0,0.16-0.059,0.346-0.186,0.559c-0.121,0.216-0.31,0.42-0.566,0.618c-0.252,0.194-0.573,0.359-0.951,0.486
				c-0.38,0.13-0.824,0.195-1.319,0.195c-1.137,0-2.018-0.322-2.651-0.97c-0.63-0.649-0.947-1.529-0.947-2.638
				c0-0.522,0.08-1.008,0.237-1.456c0.154-0.449,0.381-0.829,0.679-1.151c0.297-0.321,0.663-0.565,1.101-0.735
				c0.435-0.17,0.921-0.255,1.452-0.255c0.688,0,1.281,0.146,1.782,0.44c0.491,0.288,0.863,0.666,1.105,1.128
				c0.245,0.464,0.372,0.933,0.372,1.414c0,0.442-0.13,0.73-0.383,0.863C283.484,473.918,283.126,473.985,282.665,473.985
				 M279.206,472.979h3.206c-0.043-0.604-0.207-1.057-0.488-1.355c-0.287-0.302-0.656-0.45-1.12-0.45
				c-0.44,0-0.802,0.15-1.086,0.456C279.436,471.935,279.263,472.383,279.206,472.979"/>
			<path id="XMLID_2943_" style="fill:#7F3F98;" d="M286.538,470.948v0.212c0.332-0.409,0.678-0.711,1.04-0.903
				c0.353-0.194,0.763-0.291,1.215-0.291c0.542,0,1.047,0.142,1.505,0.421c0.458,0.282,0.817,0.693,1.083,1.232
				c0.266,0.542,0.4,1.179,0.4,1.918c0,0.543-0.077,1.044-0.229,1.501c-0.153,0.456-0.366,0.837-0.633,1.146
				c-0.268,0.307-0.584,0.547-0.948,0.714c-0.37,0.164-0.758,0.247-1.178,0.247c-0.504,0-0.93-0.101-1.272-0.305
				c-0.343-0.199-0.67-0.5-0.983-0.891v2.655c0,0.774-0.284,1.166-0.848,1.166c-0.335,0-0.552-0.1-0.663-0.3
				c-0.103-0.204-0.159-0.494-0.159-0.881v-7.633c0-0.338,0.072-0.586,0.218-0.755c0.146-0.163,0.349-0.248,0.603-0.248
				c0.252,0,0.454,0.085,0.611,0.255C286.461,470.382,286.538,470.625,286.538,470.948 M290.005,473.518
				c0-0.467-0.072-0.869-0.215-1.202c-0.142-0.336-0.34-0.591-0.59-0.769c-0.25-0.179-0.534-0.27-0.84-0.27
				c-0.487,0-0.899,0.194-1.233,0.575c-0.336,0.386-0.505,0.952-0.505,1.7c0,0.7,0.167,1.25,0.502,1.641
				c0.332,0.391,0.741,0.585,1.236,0.585c0.292,0,0.566-0.086,0.816-0.254c0.253-0.172,0.453-0.427,0.603-0.768
				C289.93,474.413,290.005,474,290.005,473.518"/>
			<path id="XMLID_2940_" style="fill:#7F3F98;" d="M293.562,469.131c-0.247,0-0.456-0.078-0.629-0.229
				c-0.177-0.152-0.264-0.363-0.264-0.639c0-0.251,0.089-0.457,0.27-0.621c0.179-0.16,0.386-0.242,0.624-0.242
				c0.232,0,0.433,0.072,0.609,0.218c0.177,0.149,0.266,0.364,0.266,0.645c0,0.272-0.087,0.485-0.258,0.638
				C294.007,469.052,293.802,469.131,293.562,469.131 M294.438,470.957v5.116c0,0.352-0.085,0.619-0.253,0.799
				c-0.171,0.184-0.382,0.273-0.642,0.273c-0.26,0-0.467-0.091-0.633-0.277c-0.159-0.188-0.242-0.454-0.242-0.795v-5.065
				c0-0.348,0.083-0.61,0.242-0.787c0.166-0.181,0.373-0.267,0.633-0.267c0.26,0,0.471,0.086,0.642,0.267
				C294.353,470.398,294.438,470.645,294.438,470.957"/>
			<path id="XMLID_2939_" style="fill:#7F3F98;" d="M300.139,476.338l-1.558-2.568l-0.96,0.906v1.408c0,0.341-0.09,0.601-0.27,0.784
				c-0.176,0.186-0.386,0.277-0.618,0.277c-0.272,0-0.487-0.089-0.641-0.273c-0.154-0.18-0.234-0.447-0.234-0.8v-7.544
				c0-0.391,0.078-0.689,0.226-0.896c0.152-0.208,0.372-0.308,0.65-0.308c0.272,0,0.486,0.093,0.647,0.281
				c0.16,0.184,0.241,0.46,0.241,0.82v4.291l1.989-2.089c0.247-0.256,0.431-0.437,0.564-0.53c0.129-0.095,0.286-0.142,0.47-0.142
				c0.222,0,0.405,0.071,0.556,0.21c0.144,0.141,0.218,0.317,0.218,0.527c0,0.258-0.241,0.606-0.719,1.038l-0.939,0.861l1.813,2.853
				c0.132,0.214,0.231,0.371,0.289,0.481c0.057,0.109,0.088,0.218,0.088,0.315c0,0.282-0.078,0.501-0.232,0.665
				c-0.153,0.161-0.357,0.241-0.604,0.241c-0.216,0-0.385-0.055-0.5-0.174C300.498,476.853,300.336,476.641,300.139,476.338"/>
			<path id="XMLID_2938_" style="fill:#7F3F98;" d="M303.982,477.145c-0.267,0-0.496-0.086-0.691-0.26
				c-0.194-0.17-0.292-0.413-0.292-0.726c0-0.263,0.094-0.49,0.28-0.679c0.187-0.19,0.414-0.286,0.687-0.286
				c0.271,0,0.501,0.096,0.697,0.281c0.19,0.188,0.288,0.418,0.288,0.684c0,0.308-0.097,0.551-0.288,0.723
				C304.467,477.059,304.24,477.145,303.982,477.145"/>
			<path id="XMLID_2937_" style="fill:#7F3F98;" d="M312.778,474.956c0,0.218-0.066,0.456-0.198,0.705
				c-0.131,0.253-0.333,0.489-0.604,0.716c-0.269,0.227-0.608,0.411-1.019,0.548c-0.41,0.138-0.873,0.209-1.385,0.209
				c-1.095,0-1.949-0.32-2.563-0.956c-0.61-0.638-0.918-1.493-0.918-2.564c0-0.728,0.139-1.368,0.423-1.926
				c0.278-0.555,0.684-0.987,1.214-1.291c0.532-0.305,1.17-0.457,1.905-0.457c0.46,0,0.879,0.067,1.263,0.201
				c0.383,0.133,0.704,0.308,0.972,0.518c0.263,0.215,0.467,0.439,0.606,0.677c0.141,0.24,0.21,0.464,0.21,0.673
				c0,0.21-0.077,0.39-0.234,0.536c-0.16,0.147-0.351,0.221-0.572,0.221c-0.149,0-0.271-0.039-0.369-0.113
				c-0.098-0.077-0.208-0.198-0.326-0.37c-0.217-0.326-0.441-0.574-0.68-0.735c-0.234-0.166-0.532-0.247-0.895-0.247
				c-0.52,0-0.944,0.203-1.264,0.612c-0.319,0.406-0.48,0.968-0.48,1.674c0,0.333,0.043,0.641,0.125,0.919
				c0.08,0.278,0.199,0.516,0.355,0.712c0.157,0.196,0.344,0.344,0.563,0.446c0.221,0.105,0.464,0.154,0.725,0.154
				c0.356,0,0.659-0.082,0.912-0.246c0.256-0.164,0.479-0.414,0.672-0.752c0.108-0.198,0.223-0.353,0.347-0.466
				c0.125-0.111,0.279-0.17,0.461-0.17c0.216,0,0.396,0.084,0.536,0.247C312.705,474.595,312.778,474.772,312.778,474.956"/>
			<path id="XMLID_2934_" style="fill:#7F3F98;" d="M320.409,473.551c0,0.525-0.083,1.012-0.242,1.459
				c-0.168,0.445-0.404,0.827-0.716,1.145c-0.31,0.32-0.683,0.565-1.113,0.737c-0.436,0.168-0.921,0.255-1.458,0.255
				c-0.536,0-1.018-0.087-1.447-0.261c-0.425-0.17-0.798-0.419-1.109-0.738c-0.314-0.325-0.551-0.705-0.717-1.144
				c-0.156-0.439-0.239-0.924-0.239-1.453c0-0.536,0.084-1.027,0.244-1.472c0.165-0.446,0.402-0.826,0.709-1.141
				c0.308-0.315,0.677-0.557,1.112-0.73c0.439-0.17,0.92-0.255,1.447-0.255c0.535,0,1.021,0.085,1.458,0.26
				c0.435,0.171,0.806,0.419,1.121,0.736c0.312,0.324,0.547,0.702,0.709,1.14C320.327,472.534,320.409,473.018,320.409,473.551
				 M318.634,473.551c0-0.722-0.16-1.283-0.476-1.684c-0.316-0.406-0.743-0.605-1.278-0.605c-0.346,0-0.651,0.09-0.916,0.268
				c-0.264,0.178-0.465,0.443-0.607,0.794c-0.143,0.35-0.215,0.759-0.215,1.227c0,0.463,0.07,0.864,0.211,1.209
				c0.142,0.348,0.342,0.612,0.604,0.795c0.263,0.182,0.569,0.276,0.922,0.276c0.535,0,0.962-0.202,1.278-0.608
				C318.474,474.82,318.634,474.261,318.634,473.551"/>
			<path id="XMLID_2933_" style="fill:#7F3F98;" d="M327.155,473.681v2.35c0,0.373-0.082,0.649-0.252,0.837
				c-0.17,0.186-0.389,0.278-0.667,0.278c-0.268,0-0.487-0.092-0.648-0.278c-0.169-0.188-0.254-0.464-0.254-0.837v-2.817
				c0-0.446-0.014-0.792-0.043-1.039c-0.031-0.241-0.114-0.447-0.247-0.602c-0.134-0.161-0.347-0.24-0.634-0.24
				c-0.58,0-0.96,0.198-1.144,0.601c-0.182,0.393-0.277,0.964-0.277,1.709v2.388c0,0.367-0.083,0.645-0.247,0.835
				c-0.17,0.186-0.387,0.281-0.658,0.281c-0.27,0-0.489-0.095-0.659-0.281c-0.172-0.189-0.257-0.468-0.257-0.835v-5.059
				c0-0.334,0.076-0.587,0.228-0.758c0.157-0.175,0.359-0.26,0.607-0.26c0.243,0,0.444,0.084,0.608,0.242
				c0.161,0.162,0.241,0.386,0.241,0.671v0.167c0.309-0.365,0.638-0.635,0.985-0.805c0.352-0.177,0.738-0.263,1.168-0.263
				c0.444,0,0.826,0.089,1.144,0.266c0.32,0.178,0.582,0.447,0.791,0.802c0.3-0.36,0.62-0.629,0.962-0.805
				c0.341-0.176,0.718-0.263,1.134-0.263c0.481,0,0.901,0.097,1.251,0.285c0.347,0.19,0.609,0.464,0.783,0.816
				c0.151,0.322,0.225,0.825,0.225,1.512v3.452c0,0.373-0.083,0.649-0.25,0.837c-0.168,0.186-0.393,0.278-0.668,0.278
				c-0.269,0-0.487-0.095-0.658-0.281c-0.171-0.189-0.257-0.468-0.257-0.835v-2.974c0-0.381-0.016-0.684-0.047-0.912
				c-0.032-0.23-0.12-0.423-0.261-0.577c-0.145-0.155-0.362-0.234-0.65-0.234c-0.233,0-0.454,0.073-0.664,0.21
				c-0.209,0.135-0.373,0.325-0.492,0.554C327.222,472.396,327.155,472.924,327.155,473.681"/>
		</g>
		<g id="XMLID_2918_">
			<path id="XMLID_2931_" style="fill:#7F3F98;" d="M244.841,473.123c-0.001-0.003-0.001-0.006-0.001-0.012
				C244.84,473.116,244.84,473.119,244.841,473.123z"/>
			<path id="XMLID_2930_" style="fill:#7F3F98;" d="M244.93,473.688c0.002,0,0.002,0,0.002,0c-0.034-0.161-0.06-0.321-0.08-0.479
				C244.872,473.368,244.898,473.529,244.93,473.688z"/>
			<path id="XMLID_2929_" style="fill:#7F3F98;" d="M245.516,475.329c-0.004-0.006-0.007-0.014-0.011-0.022
				C245.508,475.315,245.512,475.323,245.516,475.329z"/>
			<path id="XMLID_2928_" style="fill:#7F3F98;" d="M245.459,475.22c-0.015-0.03-0.03-0.061-0.044-0.091
				C245.43,475.161,245.444,475.19,245.459,475.22z"/>
			<path id="XMLID_2927_" style="fill:#7F3F98;" d="M245.095,474.32c0.087,0.273,0.191,0.537,0.312,0.79
				c-0.123-0.258-0.225-0.523-0.309-0.79C245.096,474.32,245.096,474.32,245.095,474.32z"/>
			<path id="XMLID_2926_" style="fill:#7F3F98;" d="M251.686,466.347c0.342,0,0.594,0.027,0.883,0.076l0.082-0.52
				c0,0-0.798-0.245-1.848-0.159l-0.082-0.283c0.326-0.069,0.571-0.359,0.571-0.705c0-0.397-0.323-0.719-0.721-0.719
				c-0.398,0-0.72,0.322-0.72,0.719c0,0.346,0.244,0.637,0.57,0.705l0.091,0.316c-1.115,0.153-2.002,0.588-2.002,0.588l0.157,0.481
				c0.674-0.224,1.259-0.361,1.789-0.418C250.977,466.371,251.368,466.347,251.686,466.347z"/>
			<path id="XMLID_2925_" style="fill:#7F3F98;" d="M245.503,468.978l0.004-0.005c0.027-0.034,0.052-0.066,0.077-0.097l-0.213-0.154
				l-0.333-0.243c-0.018,0.026-0.542,0.508-0.956,1.397c-0.017-0.028-0.038-0.055-0.061-0.081c-0.124-0.135-0.297-0.204-0.517-0.201
				c-0.003,0-0.006,0-0.01,0c-0.136,0-0.23-0.045-0.291-0.1c0.061-0.077,0.098-0.174,0.098-0.282c0-0.251-0.204-0.456-0.457-0.456
				c-0.251,0-0.456,0.205-0.456,0.456c0,0.253,0.204,0.456,0.456,0.456c0.04,0,0.077-0.007,0.114-0.014
				c0.112,0.125,0.29,0.233,0.551,0.228c0.134-0.001,0.232,0.033,0.298,0.106c0.075,0.082,0.101,0.202,0.109,0.292
				c0,0.001,0,0.003-0.002,0.003c-0.297,0.811-0.212,1.821-0.212,1.821l0.721,0.029c0.015-0.368,0.067-1.011,0.253-1.521
				C245.035,469.622,245.484,469.004,245.503,468.978z"/>
			<path id="XMLID_2924_" style="fill:#7F3F98;" d="M257.959,466.949c-0.251,0-0.456,0.204-0.456,0.456
				c0,0.039,0.006,0.077,0.016,0.113c-0.125,0.113-0.234,0.292-0.23,0.553c0.002,0.134-0.033,0.231-0.105,0.298
				c-0.058,0.051-0.13,0.079-0.202,0.096c-0.537-0.752-1.198-1.211-1.198-1.211l-0.518,0.555c0.391,0.356,0.791,0.801,1.179,1.357
				c0.268,0.384,0.545,0.88,0.775,1.373l0.699-0.332c0,0-0.319-0.788-0.768-1.494c0.078-0.027,0.156-0.07,0.225-0.131
				c0.137-0.123,0.204-0.298,0.2-0.517c-0.001-0.142,0.045-0.238,0.101-0.301c0.078,0.059,0.175,0.097,0.281,0.097
				c0.253,0,0.457-0.204,0.457-0.457C258.416,467.153,258.213,466.949,257.959,466.949z"/>
			<path id="XMLID_2923_" style="fill:#7F3F98;" d="M256.147,473.225c-0.961,0.468-2.542,1.087-4.625,1.377
				c-0.817,0.113-1.609,0.155-2.338,0.155c-0.949,0-1.787-0.071-2.43-0.152c-0.734-0.093-1.307-0.206-1.659-0.285
				c0.084,0.267,0.186,0.532,0.309,0.79c0.002,0.007,0.005,0.014,0.008,0.018c0.015,0.03,0.029,0.061,0.044,0.091
				c0.015,0.03,0.03,0.059,0.045,0.087c0.004,0.008,0.007,0.016,0.011,0.022c0.206,0.389,0.455,0.746,0.737,1.056
				c0.982,1.074,1.983,1.244,1.992,1.246l0.016,0.002l0.015,0.005c0.009,0.003,0.896,0.29,2.245,0.29
				c1.327,0,2.629-0.268,3.869-0.796c0.919-0.47,1.788-1.184,2.219-1.82c0.333-0.493,0.573-1.018,0.716-1.565
				c0.076-0.29,0.136-0.755,0.101-1.245C257.154,472.684,256.726,472.943,256.147,473.225z"/>
			<path id="XMLID_2919_" style="fill:#7F3F98;" d="M245.811,469.206c-0.028,0.041-0.445,0.631-0.774,1.537
				c-0.247,0.678-0.236,1.666-0.236,1.677v0.002c0,0.231,0.013,0.462,0.039,0.689c0,0.005,0,0.008,0.001,0.012
				c0.003,0.029,0.008,0.057,0.011,0.087c0.02,0.158,0.047,0.318,0.081,0.479c0.478,0.121,3.327,0.786,6.511,0.342
				c1.996-0.278,3.512-0.868,4.432-1.314c0.765-0.371,1.256-0.707,1.446-0.845c-0.189-0.702-0.711-1.801-1.189-2.487
				c-1.367-1.954-2.842-2.456-3.599-2.58c-0.289-0.048-0.52-0.074-0.848-0.074c-0.305,0-0.683,0.024-1.189,0.077
				c-0.507,0.053-1.072,0.186-1.727,0.407c-0.919,0.308-1.75,0.79-2.405,1.397l-0.022,0.021
				C246.246,468.722,246.044,468.909,245.811,469.206z M254.178,468.751c0.655,0,1.189,0.533,1.189,1.189s-0.534,1.19-1.189,1.19
				c-0.656,0-1.188-0.534-1.188-1.19S253.522,468.751,254.178,468.751z M248.558,468.703c1.061,0,1.921,0.861,1.921,1.921
				c0,1.061-0.86,1.919-1.921,1.919c-1.06,0-1.921-0.858-1.921-1.919C246.637,469.564,247.497,468.703,248.558,468.703z"/>
		</g>
	</g>
</g>
</svg>
